{
	"asset":{
		"version":"2.0",
		"generator":"Created using the official Cinema 4D glTF Exporter 1.000x287526"
	},
	"scenes":[{
		"nodes":[0,
		1]
	}],
	"meshes":[{
		"primitives":[{
			"attributes":{
				"POSITION":1,
				"NORMAL":2,
				"TEXCOORD_0":3
			},
			"indices":0,
			"material":0
		}]
	}],
	"nodes":[{
		"name":"CINEMA_4D_Editor",
		"translation":[467.55859375,
		246.29052734375,
		477.1894836425781],
		"rotation":[0.16126862168312074,
		-0.37456169724464419,
		-0.06633128970861435,
		-0.9106569886207581],
		"scale":[1.0,
		1.0,
		1.0],
		"camera":0
	},
	{
		"name":"flower",
		"translation":[0.0,
		0.0,
		0.0],
		"rotation":[0.000609080190770328,
		-0.9992386102676392,
		0.017441775649785997,
		0.0348941795527935],
		"scale":[0.10000000149011612,
		0.10000000149011612,
		0.10000000149011612],
		"children":[2]
	},
	{
		"name":"Null",
		"translation":[-4.333955340874579e-13,
		1.4814247918659706e-12,
		-1.260786993469848e-13],
		"rotation":[0.0,
		-6.938893903907229e-18,
		0.0,
		-1.0],
		"scale":[1.0,
		1.0,
		1.0],
		"children":[3]
	},
	{
		"name":"Connect",
		"translation":[-4.333955340874579e-13,
		-5.358345061060032e-13,
		1.5146129380243427e-28],
		"rotation":[0.0,
		0.0,
		0.0,
		-1.0],
		"scale":[1.0,
		1.0,
		1.0],
		"children":[4]
	},
	{
		"name":"Cloner_2",
		"translation":[0.0,
		0.0,
		0.0],
		"rotation":[0.0,
		-6.938893903907229e-18,
		0.0,
		-1.0],
		"scale":[1.0,
		1.0,
		1.0],
		"mesh":0
	}],
	"cameras":[{
		"type":"perspective",
		"perspective":{
			"znear":0.009999999776482582,
			"zfar":10000000000.0,
			"aspectRatio":1.7777777910232545,
			"yfov":0.5483348965644836
		}
	}],
	"accessors":[{
		"bufferView":0,
		"type":"SCALAR",
		"componentType":5123,
		"count":7680,
		"byteOffset":0,
		"min":[0],
		"max":[1799]
	},
	{
		"bufferView":1,
		"type":"VEC3",
		"componentType":5126,
		"count":1800,
		"byteOffset":0,
		"min":[-1080.5928955078125,
		-427.47882080078127,
		-1144.3790283203125],
		"max":[1136.9443359375,
		956.691650390625,
		1122.3624267578125]
	},
	{
		"bufferView":1,
		"type":"VEC3",
		"componentType":5126,
		"count":1800,
		"byteOffset":12,
		"min":[-0.999738335609436,
		-0.4266400635242462,
		-0.9996198415756226],
		"max":[0.9997426867485046,
		0.9999871850013733,
		0.9998067021369934]
	},
	{
		"bufferView":1,
		"type":"VEC2",
		"componentType":5126,
		"count":1800,
		"byteOffset":24,
		"min":[0.0,
		0.0],
		"max":[1.0,
		1.0]
	}],
	"bufferViews":[{
		"buffer":0,
		"byteOffset":0,
		"byteLength":15360,
		"target":34963
	},
	{
		"buffer":0,
		"byteOffset":15360,
		"byteLength":57600,
		"target":34962,
		"byteStride":32
	}],
	"buffers":[{
		"uri":"data:application/octet-stream;base64,",
		"byteLength":72960
	}],
	"materials":[{
		"pbrMetallicRoughness":{
			"baseColorFactor":[1.0,
			1.0,
			1.0,
			1.0],
			"metallicFactor":1.0,
			"roughnessFactor":1.0
		},
		"emissiveFactor":[0.0,
		0.0,
		0.0],
		"alphaMode":"OPAQUE",
		"doubleSided":false,
		"name":""
	}]
}